#!OML:ASF X:\für Bonn\!DataBase\2005_08_12_Daniel\c3d\Daniel.ASF
:FULLY-SPECIFIED
:DEGREES
2609
root -21.2601 16.385 -34.5036 -718.673 74.8397 -362.127
lowerback 18.8678 -1.14398 -0.706111
upperback 4.7349 -1.48036 -1.17576
thorax -5.4675 -0.620834 -0.519439
lowerneck -1.96842 -7.23708 -15.9439
upperneck 8.69662 -9.65368 9.36786
head 4.15492 -4.91707 4.9645
rclavicle -2.84262e-014 2.62396e-014
rhumerus -48.5947 0.589576 -88.6079
rradius 38.5984
rwrist 8.72444
rhand -29.9874 27.2866
rfingers 7.12502
rthumb -3.30527 -2.66753
lclavicle -2.84262e-014 2.62396e-014
lhumerus -41.7539 -14.3416 95.1344
lradius 98.3444
lwrist 11.0191
lhand -9.08604 -11.9041
lfingers 7.12502
lthumb 16.8636 17.3836
rfemur -28.5752 -2.36952 21.9126
rtibia 78.9791
rfoot -20.4746 0.681675
rtoes -14.6658
lfemur -6.88244 0.768671 -18.0498
ltibia 56.341
lfoot -36.141 -12.717
ltoes 1.5285
2610
root -21.1157 16.3833 -34.4765 -719.285 75.1807 -362.559
lowerback 19.1787 -1.43692 -0.412332
upperback 4.79552 -1.79699 -1.08513
thorax -5.57493 -0.774481 -0.511413
lowerneck -2.23052 -7.29787 -16.5397
upperneck 8.65825 -9.72106 9.93039
head 4.25255 -4.94249 5.22062
rclavicle -5.12864e-014 -1.19271e-015
rhumerus -49.9058 1.23791 -88.1199
rradius 39.6494
rwrist 8.56517
rhand -30.7731 28.029
rfingers 7.12502
rthumb -4.06403 -1.91201
lclavicle -5.12864e-014 -1.19271e-015
lhumerus -41.5256 -14.9965 94.8584
lradius 99.4483
lwrist 10.8884
lhand -9.0494 -11.3052
lfingers 7.12502
lthumb 16.8989 17.9795
rfemur -29.908 -2.62543 22.5077
rtibia 80.0557
rfoot -19.9874 1.40466
rtoes -15.7876
lfemur -5.30724 0.157416 -18.0981
ltibia 54.9598
lfoot -36.6624 -12.4355
ltoes 1.6482
2611
root -20.963 16.3873 -34.4492 -719.959 75.5064 -363.095
lowerback 19.4129 -1.7566 -0.0624021
upperback 4.83967 -2.13664 -0.995013
thorax -5.66329 -0.940623 -0.52916
lowerneck -2.43861 -7.34122 -17.1045
upperneck 8.51052 -9.76461 10.4547
head 4.30224 -4.95595 5.46549
rclavicle 1.41137e-014 -3.57812e-015
rhumerus -51.3595 2.12166 -87.831
rradius 40.9735
rwrist 8.39265
rhand -31.64 28.7561
rfingers 7.12502
rthumb -4.90113 -1.16717
lclavicle 1.41137e-014 -3.57812e-015
lhumerus -41.4587 -15.4968 94.5992
lradius 100.712
lwrist 10.7326
lhand -9.01981 -10.75
lfingers 7.12502
lthumb 16.9274 18.5323
rfemur -31.2312 -2.9478 23.1635
rtibia 80.9033
rfoot -19.5068 1.9858
rtoes -16.7299
lfemur -3.66264 -0.510021 -18.1883
ltibia 53.4019
lfoot -37.0674 -12.0142
ltoes 1.55591
2612
root -20.8001 16.4043 -34.4212 -720.896 75.8101 -363.977
lowerback 19.5286 -2.09942 0.362623
upperback 4.87298 -2.48854 -0.855713
thorax -5.70429 -1.11447 -0.534821
lowerneck -2.5724 -7.38165 -17.6391
upperneck 8.22083 -9.80176 10.9029
head 4.29101 -4.96765 5.68607
rclavicle -5.96354e-015 -3.97569e-015
rhumerus -52.877 3.17043 -87.6499
rradius 42.4965
rwrist 8.196
rhand -32.4976 29.5139
rfingers 7.12502
rthumb -5.72919 -0.388608
lclavicle -5.96354e-015 -3.97569e-015
lhumerus -41.5296 -15.8575 94.3848
lradius 102.058
lwrist 10.7123
lhand -9.06183 -10.3534
lfingers 7.12502
lthumb 16.8869 18.9324
rfemur -32.5262 -3.2904 23.9449
rtibia 81.4752
rfoot -19.1485 2.47337
rtoes -17.6883
lfemur -1.99229 -1.20963 -18.249
ltibia 51.6937
lfoot -37.2952 -11.4973
ltoes 1.41578
2613
root -20.6305 16.4243 -34.3933 -721.954 76.0631 -365.031
lowerback 19.5851 -2.45226 0.827911
upperback 4.8783 -2.84629 -0.705366
thorax -5.74835 -1.2925 -0.549932
lowerneck -2.66993 -7.41099 -17.9306
upperneck 7.88438 -9.8203 11.1524
head 4.23503 -4.96984 5.80833
rclavicle -5.76476e-015 -2.38542e-015
rhumerus -54.4476 4.37948 -87.6395
rradius 44.1504
rwrist 8.02487
rhand -33.4061 30.2336
rfingers 7.12502
rthumb -6.60627 0.356671
lclavicle -5.76476e-015 -2.38542e-015
lhumerus -41.7851 -16.0709 94.2039
lradius 103.424
lwrist 10.7927
lhand -9.1722 -10.2292
lfingers 7.12502
lthumb 16.7807 19.0656
rfemur -33.8182 -3.65192 24.7974
rtibia 81.8228
rfoot -18.8448 2.94526
rtoes -18.5095
lfemur -0.352102 -1.86104 -18.298
ltibia 49.9448
lfoot -37.3178 -10.9172
ltoes 1.18472
2614
root -20.455 16.449 -34.3661 -723.192 76.3204 -366.294
lowerback 19.58 -2.83047 1.37198
upperback 4.89604 -3.22122 -0.55178
thorax -5.75415 -1.47958 -0.603425
lowerneck -2.92449 -7.451 -17.9182
upperneck 7.70319 -9.82554 11.1455
head 4.2222 -4.96301 5.79525
rclavicle -2.62396e-014 1.03368e-014
rhumerus -55.9282 5.50732 -87.6729
rradius 45.8002
rwrist 7.99235
rhand -34.1825 30.9933
rfingers 7.12502
rthumb -7.35569 1.14118
lclavicle -2.62396e-014 1.03368e-014
lhumerus -42.1188 -16.227 94.0119
lradius 104.86
lwrist 11.0286
lhand -9.24339 -10.2617
lfingers 7.12502
lthumb 16.7121 19.0389
rfemur -35.0714 -4.06802 25.7238
rtibia 81.9434
rfoot -18.5079 3.33882
rtoes -18.9178
lfemur 1.23965 -2.42501 -18.2897
ltibia 48.2028
lfoot -37.1102 -10.3021
ltoes 0.763361
2615
root -20.2716 16.4814 -34.3379 -724.32 76.5154 -367.49
lowerback 19.5133 -3.20397 1.83931
upperback 4.87427 -3.60652 -0.36094
thorax -5.76726 -1.67216 -0.572044
lowerneck -3.13576 -7.44698 -17.7117
upperneck 7.59997 -9.77433 10.9398
head 4.19769 -4.93201 5.69424
rclavicle -1.35174e-014 1.19271e-014
rhumerus -57.483 6.76279 -87.78
rradius 47.518
rwrist 8.03705
rhand -34.8285 31.6563
rfingers 7.12502
rthumb -7.97921 1.82693
lclavicle -1.35174e-014 1.19271e-014
lhumerus -42.6161 -16.2037 93.9331
lradius 106.385
lwrist 11.2807
lhand -9.41063 -10.4041
lfingers 7.12502
lthumb 16.5511 18.9101
rfemur -36.299 -4.48757 26.6469
rtibia 81.8435
rfoot -18.1564 3.66399
rtoes -18.9138
lfemur 2.74756 -2.91794 -18.3082
ltibia 46.519
lfoot -36.6653 -9.73271
ltoes 0.354887
